<svg width="148.000000pt" height="145.000000pt" viewBox="0 0 148.000000 145.000000" xmlns="http://www.w3.org/2000/svg">
  <g transform="translate(0.000000,145.000000) scale(0.100000,-0.100000)" fill="#fefcfc" stroke="none">
    <path d="M0 725 l0 -725 740 0 740 0 0 725 0 725 -740 0 -740 0 0 -725z m884
595 c213 -54 398 -219 466 -413 135 -386 -182 -807 -609 -807 -463 0 -782 455
-601 856 41 91 72 132 157 207 173 153 384 209 587 157z" />
    <path d="M600 1116 c-244 -68 -386 -342 -275 -531 28 -49 71 -84 148 -120 40
-19 58 -35 65 -55 22 -61 39 -68 194 -68 141 -1 141 -1 169 28 16 16 29 37 29
48 0 14 12 22 43 32 137 41 227 153 227 284 0 57 -36 169 -66 205 -81 101
-158 154 -259 178 -64 16 -217 15 -275 -1z m1 -249 c94 -63 53 -237 -56 -237
-52 0 -105 73 -105 144 0 41 47 102 83 109 40 8 44 7 78 -16z m386 -6 c102
-75 17 -268 -97 -221 -82 34 -95 190 -18 227 51 25 74 24 115 -6z m-223 -280
c28 -31 17 -56 -24 -56 -40 0 -53 30 -25 59 21 21 28 20 49 -3z" />
  </g>
  <g transform="translate(0.000000,145.000000) scale(0.100000,-0.100000)" fill="#dc3a49" stroke="none">
    <path d="M590 1334 c-137 -29 -331 -157 -406 -268 -215 -317 -92 -745 261
-912 386 -183 850 35 937 439 16 76 5 250 -22 324 -106 301 -448 487 -770 417z
m275 -227 c101 -24 178 -77 259 -178 28 -33 66 -147 66 -195 0 -120 -94 -235
-227 -274 -31 -10 -43 -18 -43 -32 0 -11 -13 -32 -28 -48 -28 -28 -28 -28
-161 -26 -124 1 -134 2 -157 25 -13 13 -25 29 -25 37 -1 8 -2 20 -3 27 0 6 -5
12 -11 12 -20 1 -105 44 -140 71 -199 152 -70 500 215 580 58 16 191 17 255 1z" />
    <path d="M513 893 c-49 -10 -95 -90 -83 -148 1 -5 2 -19 3 -29 3 -37 70 -96
108 -96 128 0 177 193 66 260 -31 19 -49 22 -94 13z" />
    <path d="M863 879 c-103 -65 -55 -259 63 -259 153 0 158 265 4 276 -23 1 -48
-5 -67 -17z" />
    <path d="M712 602 c-7 -5 -16 -22 -21 -40 -12 -40 4 -54 56 -50 33 3 38 6 41
31 6 47 -39 82 -76 59z" />
  </g>
</svg>